<svg width="100" height="100" viewBox="0 0 100 100" fill="none" xmlns="http://www.w3.org/2000/svg">
<path d="M0 16C0 7.16345 7.16344 0 16 0H84C92.8366 0 100 7.16344 100 16V84C100 92.8366 92.8366 100 84 100H16C7.16345 100 0 92.8366 0 84V16Z" fill="url(#paint0_linear_26_132)"/>
<path d="M82.9588 46.7328C82.3343 40.3912 79.9088 34.3908 76.0086 29.421C74.6447 27.6832 72.0899 27.6961 70.5278 29.2582C68.9657 30.8203 68.9961 33.3379 70.2946 35.1251C73.3294 39.3021 75.1193 44.442 75.1193 50C75.1193 57.9615 71.4467 65.0652 65.7033 69.7094C61.6031 73.0248 56.4526 69.2527 56.4526 63.9797V22.6667C56.4526 19.353 53.7663 16.6667 50.4526 16.6667C50.2339 16.6667 50.0179 16.6784 49.8052 16.7012C49.795 16.7023 49.786 16.6943 49.786 16.684C49.786 16.6744 49.7782 16.6667 49.7687 16.6667C42.063 16.6707 34.5964 19.3443 28.6396 24.233C22.6782 29.1253 18.5977 35.9333 17.0932 43.497C16.9272 44.3316 16.7936 45.1698 16.6923 46.0096C16.4278 48.2029 18.2435 50 20.4526 50C22.6617 50 24.4195 48.197 24.7642 46.0149C25.8691 39.0223 29.8349 32.981 35.4252 29.1274C39.6185 26.2368 44.4526 30.0317 44.4526 35.1248V77.3333C44.4526 80.4158 46.777 82.9553 49.7687 83.2948C49.7785 83.2959 49.7859 83.3042 49.7859 83.314C49.7859 83.3247 49.7773 83.3333 49.7666 83.3333C49.7027 83.3333 49.6387 83.3331 49.5747 83.3327C49.8008 83.3341 50.0269 83.3332 50.253 83.3301C50.3193 83.3322 50.3858 83.3333 50.4526 83.3333C50.62 83.3333 50.7857 83.3265 50.9496 83.313C53.8168 83.2129 56.6785 82.7424 59.4622 81.898C66.842 79.6594 73.2172 74.9312 77.5017 68.519C81.7861 62.1068 83.7147 54.4075 82.9588 46.7328Z" fill="url(#paint1_linear_26_132)"/>
<path d="M61.3333 16.6667H63.3333C66.647 16.6667 69.3333 19.353 69.3333 22.6667V24.6667H61.3333V16.6667Z" fill="url(#paint2_linear_26_132)"/>
<defs>
<linearGradient id="paint0_linear_26_132" x1="-0.828096" y1="-3.3213" x2="66.6389" y2="78.3339" gradientUnits="userSpaceOnUse">
<stop stop-color="#41D1FF"/>
<stop offset="1" stop-color="#BD34FE"/>
</linearGradient>
<linearGradient id="paint1_linear_26_132" x1="27.9858" y1="2.2418" x2="35.0281" y2="90.3111" gradientUnits="userSpaceOnUse">
<stop stop-color="#FFEA83"/>
<stop offset="0.0833333" stop-color="#FFDD35"/>
<stop offset="1" stop-color="#FFA800"/>
</linearGradient>
<linearGradient id="paint2_linear_26_132" x1="27.9858" y1="2.2418" x2="35.0281" y2="90.3111" gradientUnits="userSpaceOnUse">
<stop stop-color="#FFEA83"/>
<stop offset="0.0833333" stop-color="#FFDD35"/>
<stop offset="1" stop-color="#FFA800"/>
</linearGradient>
</defs>
</svg>
